<?xml version="1.0" encoding="UTF-8" standalone="no"?>
<!DOCTYPE svg PUBLIC "-//W3C//DTD SVG 1.1//EN" "http://www.w3.org/Graphics/SVG/1.1/DTD/svg11.dtd">
<svg width="100%" height="100%" viewBox="0 0 800 800" version="1.1" xmlns="http://www.w3.org/2000/svg" xmlns:xlink="http://www.w3.org/1999/xlink" xml:space="preserve" xmlns:serif="http://www.serif.com/" style="fill-rule:evenodd;clip-rule:evenodd;stroke-linejoin:round;stroke-miterlimit:2;">
    <g>
        <path d="M399.427,0C571.625,-0.308 712.509,142.988 712.511,315.186L712.511,747.914C712.511,771.116 684.458,782.734 668.053,766.33L608.341,704.881L522.584,792.372C512.414,802.542 495.925,802.542 485.755,792.372L400,704.881L314.247,792.372C304.077,802.542 287.588,802.542 277.416,792.372L191.661,704.881L131.948,766.331C115.542,782.736 87.491,771.117 87.491,747.916L87.491,312.509C87.491,140.105 227.095,0.309 399.427,0ZM478.466,226.017C510.373,226.017 536.254,360.626 536.254,526.867L582.812,526.867C582.812,347.891 535.843,203.012 478.33,203.012C445.465,203.012 416.434,246.421 397.263,314.615C378.092,246.421 349.061,203.012 316.47,203.012C258.957,203.012 212.124,347.754 212.124,526.73L258.683,526.73C258.683,360.489 284.29,226.017 316.196,226.017C348.103,226.017 373.984,350.356 373.984,503.725L420.268,503.725C420.268,350.356 446.286,226.017 478.193,226.017L478.466,226.017Z" style="fill:white;"/>
    </g>
</svg>
